<?xml version="1.0" encoding="utf-8"?>
<!-- Generator: Adobe Illustrator 16.0.4, SVG Export Plug-In . SVG Version: 6.00 Build 0)  -->
<!DOCTYPE svg PUBLIC "-//W3C//DTD SVG 1.1//EN" "http://www.w3.org/Graphics/SVG/1.1/DTD/svg11.dtd">
<svg version="1.1" id="Layer_1" xmlns="http://www.w3.org/2000/svg" xmlns:xlink="http://www.w3.org/1999/xlink" x="0px" y="0px"
	 width="111.79px" height="93.072px" viewBox="0 0 111.79 93.072" enable-background="new 0 0 111.79 93.072" xml:space="preserve">
<path d="M18.457,37.071v56h93.334v-56H18.457z M104.324,74.115l-3.043,2.811c-0.388-0.07-0.746-0.215-1.156-0.215
	c-3.348,0-6.054,2.502-6.054,5.591c0,0.378,0.153,0.704,0.232,1.062l-3.048,2.814H38.99l-3.043-2.811
	c0.08-0.358,0.233-0.689,0.233-1.067c0-3.089-2.711-5.586-6.058-5.586c-0.41,0-0.766,0.145-1.152,0.21l-3.047-2.811V56.027
	l3.041-2.81c0.389,0.069,0.748,0.215,1.158,0.215c3.347,0,6.054-2.501,6.054-5.591c0-0.378-0.154-0.705-0.233-1.064l3.047-2.813
	h52.268l3.043,2.81c-0.08,0.359-0.234,0.69-0.234,1.068c0,3.089,2.712,5.586,6.059,5.586c0.41,0,0.766-0.146,1.152-0.21l3.047,2.813
	V74.115L104.324,74.115z M96.847,65.071c0,3.085-2.711,5.586-6.057,5.586c-3.347,0-6.058-2.501-6.058-5.586s2.711-5.586,6.058-5.586
	C94.136,59.485,96.847,61.986,96.847,65.071z M79.469,65.071c0,7.138-6.269,12.922-14,12.922s-14-5.784-14-12.922
	c0-7.137,6.269-12.922,14-12.922S79.469,57.934,79.469,65.071z M45.514,65.071c0,3.085-2.712,5.586-6.058,5.586
	s-6.058-2.501-6.058-5.586s2.712-5.586,6.058-5.586S45.514,61.986,45.514,65.071z M83.24,31.368c0.116,0.342,0.079,0.69,0.125,1.036
	H71.768c0.462-1.885,1.824-3.569,3.905-4.303C78.833,26.996,82.218,28.456,83.24,31.368z M20.707,32.404h-6.916v13.029l-0.472,0.887
	l0.472,1.335V70.2L0,30.902L88.069,0.001l11.368,32.404h-7.91l-4.219-12.036L83.5,18.722c-0.34,0.19-0.631,0.442-1.018,0.579
	c-3.154,1.105-6.543-0.355-7.564-3.268c-0.127-0.358-0.088-0.724-0.135-1.087l-3.805-1.643L21.662,30.608L20.707,32.404z
	 M49.354,29.562c5.288-1.853,10.822-0.555,14.388,2.842H44.473C45.854,31.2,47.494,30.217,49.354,29.562z"/>
</svg>
