<?xml version="1.0" encoding="utf-8"?>
<!-- Generator: Adobe Illustrator 16.0.4, SVG Export Plug-In . SVG Version: 6.00 Build 0)  -->
<!DOCTYPE svg PUBLIC "-//W3C//DTD SVG 1.1//EN" "http://www.w3.org/Graphics/SVG/1.1/DTD/svg11.dtd">
<svg version="1.1" id="Layer_1" xmlns="http://www.w3.org/2000/svg" xmlns:xlink="http://www.w3.org/1999/xlink" x="0px" y="0px" fill="white"
	 width="50px" height="50px" viewBox="0 0 50 50" enable-background="new 0 0 50 50" xml:space="preserve">
<path d="M35.468,24.049c-0.302-0.641-0.737-1.259-1.294-1.842c1.082,0.247,2.028,0.904,2.643,1.842H35.468z M35.484,26.673h-2.028
	v1.613h1.638C35.318,27.762,35.449,27.221,35.484,26.673z M35.137,24.553h-1.681v1.614h2.033
	C35.466,25.618,35.348,25.076,35.137,24.553z M33.456,22.184v1.865h1.446C34.553,23.385,34.055,22.752,33.456,22.184z
	 M35.996,26.167h1.521c-0.031-0.565-0.17-1.106-0.414-1.614h-1.426C35.868,25.078,35.975,25.62,35.996,26.167z M35.641,28.286h1.463
	c0.244-0.507,0.383-1.048,0.416-1.613h-1.527C35.96,27.219,35.843,27.76,35.641,28.286z M30.727,24.553h-1.425
	c-0.243,0.508-0.383,1.049-0.415,1.614h1.522C30.43,25.62,30.537,25.078,30.727,24.553z M30.764,28.286
	c-0.201-0.524-0.318-1.065-0.351-1.613h-1.527c0.032,0.565,0.173,1.106,0.415,1.613H30.764z M32.23,22.207
	c-1.082,0.247-2.028,0.904-2.644,1.842h1.349C31.239,23.408,31.674,22.79,32.23,22.207z M36.154,29.562h1.879v4.035h-9.497v-4.035
	h1.713c-0.245-0.229-0.474-0.481-0.662-0.771h1.397c0.131,0.263,0.289,0.519,0.461,0.771h0.63c-0.193-0.252-0.374-0.508-0.521-0.771
	h1.394v0.771h0.507v-0.771h1.393c-0.146,0.263-0.326,0.519-0.519,0.771h0.629c0.173-0.252,0.33-0.508,0.46-0.771h1.398
	C36.627,29.081,36.398,29.333,36.154,29.562z M31.457,32.43h-1.309v-2.164h-0.275H29.6v2.633h1.857v-0.235V32.43z M32.234,30.266
	h-0.276h-0.274v2.633h0.276h0.274V30.266z M34.734,30.266H34.45h-0.283l-0.577,2.008l-0.579-2.008h-0.292h-0.292l0.892,2.633h0.262
	h0.262L34.734,30.266z M34.975,30.266v2.633h1.998v-0.235v-0.231h-1.449v-0.688h1.287v-0.227V31.29h-1.287v-0.558h1.388v-0.235
	v-0.231H34.975L34.975,30.266z M32.949,24.553h-1.684c-0.209,0.523-0.328,1.066-0.351,1.614h2.034V24.553z M32.949,28.286v-1.613
	H30.92c0.036,0.548,0.167,1.091,0.391,1.613H32.949z M32.949,22.206c-0.62,0.575-1.105,1.194-1.446,1.843h1.446V22.206z
	 M17.197,30.666c0.297,0.176,0.687,0.293,1.126,0.293c0.441,0,0.829-0.117,1.126-0.293c0.172-0.104,0.321-0.221,0.412-0.359
	c-0.255,0.172-0.61,0.299-1.015,0.359c-0.167,0.023-0.341,0.041-0.523,0.041c-0.184,0-0.356-0.018-0.523-0.041
	c-0.405-0.062-0.759-0.188-1.017-0.359C16.875,30.445,17.024,30.562,17.197,30.666z M20.493,28.027c0.341,0,0.617-0.275,0.617-0.615
	c0-0.092-0.023-0.178-0.058-0.254c-0.098-0.215-0.31-0.361-0.56-0.361c-0.249,0-0.46,0.146-0.558,0.361
	c-0.035,0.076-0.058,0.162-0.058,0.254C19.877,27.752,20.153,28.027,20.493,28.027z M16.153,28.027c0.341,0,0.616-0.275,0.616-0.615
	c0-0.092-0.022-0.178-0.057-0.254c-0.097-0.215-0.31-0.361-0.559-0.361c-0.248,0-0.46,0.146-0.557,0.361
	c-0.036,0.076-0.059,0.162-0.059,0.254C15.537,27.752,15.814,28.027,16.153,28.027z M30.055,40.939v1.799h3.426v2.398H16.521v-2.398
	h3.427v-1.799H6.295V16.615H23.97L13.392,6.036l1.173-1.173L25,15.301L35.438,4.863l1.174,1.173L26.032,16.615h17.673v24.324H30.055
	z M13.46,27.143l-0.218,0.047c-0.047,0-0.104,0.002-0.171-0.076H13.07c0,0-0.002-0.004-0.003-0.008
	c-0.055-0.067-0.117-0.193-0.186-0.422c-0.18,0.195-0.287,0.488-0.287,0.813c0,0.591,0.341,1.071,0.759,1.071l0.061-0.021
	l0.133-0.02l0.043,0.127c0.161,0.475,0.394,0.908,0.675,1.302c0.494,0.69,1.155,1.239,1.916,1.603
	c0.657,0.312,1.382,0.49,2.143,0.49c0.709,0,1.385-0.162,2.006-0.435c0.818-0.36,1.529-0.927,2.052-1.658
	c0.282-0.394,0.514-0.827,0.674-1.302l0.043-0.127l0.131,0.02c0.032,0.004,0.059,0.014,0.075,0.021c0.001,0,0.001,0,0.001,0
	c0.409,0,0.748-0.48,0.748-1.07c0-0.467-0.22-0.864-0.538-1c-0.054,0.318-0.109,0.493-0.159,0.586
	c-0.009,0.021-0.021,0.038-0.033,0.055l-0.001-0.002c-0.046,0.057-0.087,0.057-0.12,0.057h-0.347l0.189-0.223
	c-0.02-0.13-0.142-0.502-0.412-0.935c-0.123,0.091-0.267,0.167-0.439,0.217c-0.217,0.062-1.163,0.16-1.751-0.669
	c-0.237-0.332-0.37-1.075-0.396-1.225c-0.475,0.914-1.245,1.342-2.179,1.164c-0.472-0.09-0.925-0.133-1.346-0.133
	c-2.301,0-3.087,1.334-3.153,1.598L13.46,27.143z M17.607,36.744h1.312l0.642-2.333l0.661-2.406
	c-0.596,0.229-1.233,0.365-1.898,0.365c-0.716,0-1.401-0.157-2.035-0.42l0.677,2.461L17.607,36.744z M41.216,36.744V19.104H8.784
	v17.641h0.864c0.208-1.934,1.048-3.676,2.308-5.021v-4.939c0-3.918,2.853-7.098,6.367-7.098c3.517,0,6.368,3.18,6.368,7.098v4.939
	c1.26,1.346,2.099,3.09,2.307,5.021H41.216L41.216,36.744z"/>
</svg>
