<?xml version="1.0" encoding="iso-8859-1"?>
<!-- Generator: Adobe Illustrator 16.0.0, SVG Export Plug-In . SVG Version: 6.00 Build 0)  -->
<!DOCTYPE svg PUBLIC "-//W3C//DTD SVG 1.1//EN" "http://www.w3.org/Graphics/SVG/1.1/DTD/svg11.dtd">
<svg version="1.1" id="Layer_1" xmlns="http://www.w3.org/2000/svg" xmlns:xlink="http://www.w3.org/1999/xlink" x="0px" y="0px"
	 width="36.707px" height="49.645px" viewBox="0 0 36.707 49.645" style="enable-background:new 0 0 36.707 49.645;"
	 xml:space="preserve">
<path d="M36.573,8.029c-1.845-0.116-10.771-0.75-18.205-7.995c0-0.029,0-0.044,0-0.028c-0.005,0.005-0.01,0.01-0.015,0.014
	c-0.005-0.004-0.01-0.009-0.015-0.014c0-0.016,0-0.001,0,0.028C10.904,7.279,1.978,7.913,0.133,8.029
	c-0.808,11.543,2.31,26.55,2.31,26.55s6.444,10.472,15.886,15.043c0.001,0.006,0.002,0.018,0.004,0.022
	c0.007-0.004,0.013-0.007,0.02-0.01c0.007,0.003,0.013,0.006,0.02,0.01c0.001-0.005,0.003-0.017,0.004-0.022
	c9.441-4.571,15.886-15.043,15.886-15.043S37.38,19.572,36.573,8.029z M14.791,32.211l2.474-8.945
	c-1.563-0.685-2.564-2.212-2.564-3.927c0-2.361,1.921-4.283,4.283-4.283c2.362,0,4.284,1.922,4.284,4.283
	c0,1.516-0.805,2.921-2.108,3.691l2.385,9.181H14.791z"/>
<g>
</g>
<g>
</g>
<g>
</g>
<g>
</g>
<g>
</g>
<g>
</g>
<g>
</g>
<g>
</g>
<g>
</g>
<g>
</g>
<g>
</g>
<g>
</g>
<g>
</g>
<g>
</g>
<g>
</g>
</svg>
