<?xml version="1.0" encoding="iso-8859-1"?>
<!-- Generator: Adobe Illustrator 16.0.0, SVG Export Plug-In . SVG Version: 6.00 Build 0)  -->
<!DOCTYPE svg PUBLIC "-//W3C//DTD SVG 1.1//EN" "http://www.w3.org/Graphics/SVG/1.1/DTD/svg11.dtd">
<svg version="1.1" id="Layer_1" xmlns="http://www.w3.org/2000/svg" xmlns:xlink="http://www.w3.org/1999/xlink" x="0px" y="0px"
	 width="29.797px" height="30.223px" viewBox="0 0 29.797 30.223" style="enable-background:new 0 0 29.797 30.223;"
	 xml:space="preserve">
<path d="M14.74,0L0.07,11.178H0v19.044h29.726V11.178h0.071L14.74,0z M27.3,12.468L14.863,22.832L2.426,12.468H27.3z M28.437,28.933
	H1.29V13.2L14.863,24.51L28.437,13.2V28.933z M20.253,8.472c-0.028-0.038-0.076-0.073-0.143-0.107s-0.161-0.069-0.279-0.107
	c-0.12-0.038-0.271-0.082-0.454-0.134c-0.167-0.048-0.336-0.098-0.509-0.152c-0.173-0.054-0.328-0.125-0.464-0.215
	c-0.137-0.089-0.25-0.203-0.337-0.339c-0.087-0.137-0.13-0.313-0.13-0.527c0-0.246,0.048-0.458,0.146-0.634
	c0.097-0.176,0.226-0.322,0.384-0.438c0.159-0.115,0.341-0.199,0.548-0.253c0.207-0.054,0.419-0.081,0.638-0.081
	c0.23,0,0.45,0.024,0.661,0.072c0.21,0.047,0.397,0.126,0.561,0.235c0.163,0.109,0.293,0.252,0.393,0.43
	c0.099,0.176,0.153,0.394,0.162,0.651h-1.24c0.013-0.079,0.003-0.146-0.027-0.201c-0.029-0.056-0.072-0.102-0.127-0.138
	c-0.056-0.04-0.117-0.067-0.185-0.083c-0.067-0.016-0.135-0.024-0.203-0.024c-0.043,0-0.093,0.004-0.149,0.013
	C19.441,6.447,19.39,6.46,19.342,6.48c-0.047,0.021-0.087,0.048-0.12,0.086c-0.031,0.038-0.047,0.086-0.047,0.146
	c0.004,0.075,0.043,0.137,0.116,0.188c0.074,0.049,0.168,0.092,0.283,0.131c0.115,0.038,0.245,0.073,0.39,0.107
	c0.145,0.034,0.293,0.07,0.444,0.11c0.151,0.044,0.297,0.096,0.44,0.155c0.144,0.06,0.271,0.136,0.385,0.229
	c0.113,0.094,0.203,0.208,0.271,0.346c0.067,0.137,0.101,0.302,0.101,0.497c0,0.278-0.058,0.51-0.173,0.697
	c-0.115,0.186-0.266,0.336-0.453,0.45c-0.187,0.113-0.397,0.194-0.631,0.244c-0.235,0.05-0.471,0.074-0.709,0.074
	c-0.08,0-0.181-0.006-0.304-0.018c-0.123-0.011-0.254-0.038-0.393-0.077c-0.139-0.04-0.278-0.093-0.417-0.161
	c-0.139-0.067-0.264-0.159-0.375-0.274c-0.111-0.115-0.203-0.254-0.274-0.417C17.805,8.831,17.77,8.636,17.77,8.41h1.31
	c0,0.103,0.016,0.197,0.048,0.28c0.047,0.127,0.133,0.21,0.256,0.25C19.507,8.979,19.63,9,19.753,9c0.052,0,0.109-0.005,0.172-0.015
	c0.064-0.009,0.124-0.03,0.179-0.06c0.056-0.029,0.102-0.069,0.137-0.118c0.036-0.05,0.054-0.114,0.054-0.194
	C20.295,8.557,20.281,8.51,20.253,8.472z M12.409,5.586h1.865l0.607,2.501h0.012L15.5,5.586h1.864v4.253h-1.239V7.111h-0.012
	l-0.738,2.728h-0.977L13.66,7.111h-0.012v2.728h-1.239V5.586z M10.658,8.472c-0.027-0.038-0.075-0.073-0.143-0.107
	c-0.068-0.034-0.161-0.069-0.28-0.107c-0.119-0.038-0.27-0.082-0.453-0.134C9.615,8.077,9.445,8.026,9.273,7.973
	C9.1,7.918,8.945,7.847,8.809,7.758c-0.137-0.089-0.25-0.203-0.336-0.339C8.384,7.281,8.341,7.105,8.341,6.891
	c0-0.246,0.049-0.458,0.146-0.634c0.097-0.176,0.225-0.322,0.384-0.438C9.029,5.704,9.212,5.62,9.419,5.566s0.418-0.081,0.637-0.081
	c0.229,0,0.451,0.024,0.661,0.072c0.21,0.047,0.397,0.126,0.56,0.235c0.163,0.109,0.294,0.252,0.394,0.43
	c0.099,0.176,0.153,0.394,0.161,0.651h-1.238c0.011-0.079,0.002-0.146-0.027-0.201c-0.03-0.056-0.073-0.102-0.129-0.138
	c-0.055-0.04-0.117-0.067-0.185-0.083c-0.068-0.016-0.134-0.024-0.202-0.024c-0.044,0-0.093,0.004-0.148,0.013
	C9.846,6.447,9.794,6.46,9.747,6.48C9.699,6.5,9.659,6.528,9.627,6.566C9.596,6.604,9.58,6.653,9.58,6.713
	C9.583,6.788,9.622,6.85,9.696,6.9C9.77,6.95,9.863,6.993,9.979,7.031c0.115,0.038,0.246,0.073,0.39,0.107
	c0.146,0.034,0.293,0.07,0.444,0.11c0.151,0.044,0.298,0.096,0.441,0.155c0.143,0.06,0.271,0.136,0.384,0.229
	c0.113,0.094,0.204,0.208,0.271,0.346c0.067,0.137,0.101,0.302,0.101,0.497c0,0.278-0.057,0.51-0.172,0.697
	c-0.115,0.186-0.266,0.336-0.453,0.45c-0.187,0.113-0.397,0.194-0.631,0.244c-0.234,0.05-0.47,0.074-0.708,0.074
	c-0.08,0-0.181-0.006-0.304-0.018C9.617,9.912,9.487,9.885,9.347,9.845C9.208,9.806,9.069,9.752,8.93,9.685
	C8.792,9.617,8.666,9.525,8.555,9.41S8.353,9.156,8.282,8.994C8.21,8.831,8.174,8.636,8.174,8.41h1.31
	c0,0.103,0.016,0.197,0.047,0.28C9.58,8.817,9.665,8.9,9.788,8.94C9.911,8.979,10.035,9,10.158,9c0.051,0,0.109-0.005,0.172-0.015
	c0.063-0.009,0.123-0.03,0.179-0.06c0.056-0.029,0.102-0.069,0.137-0.118c0.036-0.05,0.053-0.114,0.053-0.194
	C10.699,8.557,10.686,8.51,10.658,8.472z"/>
<g>
</g>
<g>
</g>
<g>
</g>
<g>
</g>
<g>
</g>
<g>
</g>
<g>
</g>
<g>
</g>
<g>
</g>
<g>
</g>
<g>
</g>
<g>
</g>
<g>
</g>
<g>
</g>
<g>
</g>
</svg>
