<?xml version="1.0" encoding="utf-8"?>
<!-- Generator: Adobe Illustrator 16.0.0, SVG Export Plug-In . SVG Version: 6.00 Build 0)  -->
<!DOCTYPE svg PUBLIC "-//W3C//DTD SVG 1.1//EN" "http://www.w3.org/Graphics/SVG/1.1/DTD/svg11.dtd">
<svg version="1.1" id="Layer_1" xmlns="http://www.w3.org/2000/svg" xmlns:xlink="http://www.w3.org/1999/xlink" x="0px" y="0px"
	 width="100px" height="100px" fill="white" viewBox="0 0 100 100" enable-background="new 0 0 100 100" xml:space="preserve">
<path d="M11.653,55.243c-1.281-0.843-2.876-1.892-2.121-7.515c0.051-0.381-0.121-0.757-0.441-0.969
	c-0.118-0.077-1.182-0.754-2.344-0.754c-0.761,0-1.416,0.285-1.896,0.825c-0.797,0.897-1.054,2.435-0.784,4.7
	c0.758,6.393,3.818,7.502,4.72,7.69c0.428,0.206,1.644,0.743,2.678,0.743c0.839,0,1.317-0.346,1.57-0.636
	c0.382-0.438,0.525-1.031,0.426-1.764C13.291,56.32,12.421,55.748,11.653,55.243z"/>
<path d="M25.033,54.22c0-0.439-0.287-0.828-0.708-0.956c-0.42-0.132-0.876,0.032-1.122,0.398c-0.715,1.063-1.401,1.648-1.933,1.648
	c-1.262,0-2.751-3.253-3.341-5.601c-0.122-0.488-0.582-0.81-1.087-0.75c-0.479,0.057-0.954,0.085-1.415,0.085
	c-2.484,0-3.877-0.831-3.885-0.835c-0.308-0.194-0.697-0.206-1.016-0.03c-0.319,0.176-0.518,0.512-0.518,0.876
	c0,3.321,2.542,7.163,4.26,8.714c2.458,2.215,4.501,3.291,6.246,3.291C24.081,61.061,25.033,56.761,25.033,54.22z"/>
<path d="M14.752,48.422C14.753,48.422,14.753,48.422,14.752,48.422c2.365,0,5.114-0.811,8.172-2.409
	c9.77-5.107,52.343-27.729,52.742-27.941c0.525-0.257,3.153-1.638,3.212-3.576c0.021-0.671-0.258-1.642-1.699-2.459l-3.369-1.908
	c-0.3-0.17-0.664-0.175-0.966-0.011L9.19,44.246c-0.237,0.127-0.413,0.344-0.488,0.603c-0.074,0.259-0.042,0.536,0.091,0.771
	C8.857,45.733,10.428,48.422,14.752,48.422z"/>
<g>
	<path d="M78.234,22.526l-1.796-3.256c-0.265-0.48-0.865-0.655-1.351-0.397L22.772,47.052c-0.281,0.152-0.474,0.43-0.517,0.746
		c-0.043,0.317,0.068,0.636,0.3,0.857c0.048,0.046,4.818,4.676,3.552,8.868c-0.117,0.387,0.01,0.805,0.322,1.062
		c0.183,0.15,0.408,0.228,0.635,0.228c0.16,0,0.321-0.038,0.469-0.116l43.783-23.238c0.338-0.18,0.544-0.536,0.53-0.918
		c-0.002-0.061-0.134-6.045,6.111-10.73C78.357,23.511,78.475,22.963,78.234,22.526z"/>
	<path d="M61.39,41.553l-14.707,7.972c-0.349,0.188-0.553,0.566-0.52,0.962c0.139,1.669,4.324,8.339,10.064,8.339
		c1.782,0,3.54-0.638,5.226-1.896c2.315-1.728,3.647-3.854,3.959-6.318c0.581-4.589-2.63-8.637-2.767-8.807
		C62.342,41.429,61.815,41.321,61.39,41.553z M56.59,54.547c-1.913,0-3.47-1.557-3.47-3.471s1.557-3.471,3.47-3.471
		s3.47,1.557,3.47,3.471S58.503,54.547,56.59,54.547z"/>
	<circle cx="56.59" cy="51.076" r="1.471"/>
</g>
<path d="M89.909,59.956l-4.716,0.112c-0.543,0.014-0.977,0.457-0.977,1v3.49H68.826c-6.81,0-8.757-4.666-8.834-4.859
	c-0.149-0.385-0.52-0.639-0.933-0.639H54.12c-0.553,0-1,0.447-1,1c0,7.947,8.077,10.767,14.993,10.767l15.99-0.026l-0.026,2.381
	c-0.003,0.267,0.102,0.524,0.289,0.714c0.188,0.19,0.443,0.297,0.711,0.297h4.855c0.553,0,1-0.447,1-1V60.956
	c0-0.27-0.108-0.527-0.302-0.716C90.438,60.052,90.153,59.954,89.909,59.956z"/>
<path d="M97.959,56.826h-5.557c-0.553,0-1,0.447-1,1v18.537c0,0.553,0.447,1,1,1h5.557c0.553,0,1-0.447,1-1V57.826
	C98.959,57.273,98.512,56.826,97.959,56.826z"/>
</svg>
